<svg xmlns="http://www.w3.org/2000/svg" xmlns:xlink="http://www.w3.org/1999/xlink" width="500" zoomAndPan="magnify" viewBox="0 0 375 374.999991" height="500" preserveAspectRatio="xMidYMid meet" version="1.0"><defs><g/><clipPath id="934aa9e50b"><path d="M 9 8.394531 L 223 8.394531 L 223 252.894531 L 9 252.894531 Z M 9 8.394531 " clip-rule="nonzero"/></clipPath></defs><g clip-path="url(#934aa9e50b)"><path fill="#000000" d="M 201.015625 231.921875 C 207.238281 218.796875 206.355469 206.925781 206.355469 206.925781 C 204.855469 216.078125 202.027344 222.609375 199.035156 227.214844 C 198.332031 216.394531 188.464844 205.375 192.957031 194.328125 C 186.09375 191.734375 180.226562 187.496094 177.054688 184.929688 C 188.503906 183.023438 192.492188 175.929688 192.492188 175.929688 C 185.691406 183.472656 174.820312 183.492188 174.820312 183.492188 C 164.671875 188.828125 146.003906 184.855469 141.800781 181.691406 C 138.234375 179.011719 134.910156 179.570312 133.820312 177.609375 C 126.246094 163.964844 135.527344 152.265625 139.992188 143.027344 C 143.050781 136.699219 144.890625 129.847656 147.9375 127.242188 C 150.296875 125.222656 155.125 120.253906 157.488281 120.886719 C 160.964844 121.8125 169.585938 126.355469 166.75 130.167969 C 161.667969 137.003906 165.632812 136.230469 154.972656 136.582031 C 152.847656 136.652344 150.402344 136.546875 148.492188 142.089844 C 148.492188 142.089844 149.714844 140.167969 151.664062 138.753906 C 150.734375 140.710938 151.207031 143.28125 151.207031 143.28125 C 155.3125 158.589844 148.445312 169.597656 142.890625 171.652344 C 142.890625 171.652344 148.003906 171.179688 151.53125 164.003906 C 163.042969 155.398438 175.378906 158.324219 179.765625 159.800781 C 173.898438 166.242188 165.34375 167.605469 165.34375 167.605469 C 172.652344 167.628906 176.835938 163.425781 181.433594 160.429688 C 188.96875 155.519531 196.664062 155.648438 201.59375 156.519531 L 201.636719 156.453125 C 206.28125 157.539062 214.007812 160.222656 218.476562 166.605469 C 218.476562 166.605469 215.011719 158.480469 203.472656 153.691406 C 209.199219 144.683594 209.234375 142.5 209.234375 142.5 C 205.453125 137.050781 201.996094 138.957031 199.011719 136.839844 C 197.96875 136.097656 198.671875 134.375 198.917969 132.585938 C 199.023438 131.789062 198.683594 130.6875 198.671875 130.15625 C 198.640625 128.390625 199.457031 127.695312 198.949219 127.128906 C 198.289062 126.390625 195.355469 127.625 195.242188 125.6875 C 194.976562 121.054688 199.488281 119.609375 199.613281 110.425781 C 199.664062 106.613281 200.160156 102.867188 202.292969 100.425781 C 204.886719 97.460938 207.722656 95.523438 210.464844 94.378906 C 208.910156 91.121094 211.679688 84.875 211.042969 83.101562 C 221.863281 66.898438 228.136719 32.648438 216.117188 19.792969 C 211.238281 14.574219 199.304688 8.394531 187.542969 8.394531 C 175.78125 8.394531 164.023438 14.738281 158.96875 19.792969 C 147.203125 31.574219 149.859375 70.628906 168 87.816406 C 166.867188 91.164062 165.269531 94.339844 163.523438 97.207031 C 163.027344 97.050781 162.507812 96.890625 161.976562 96.734375 C 167.90625 102.734375 173.316406 110.273438 176.40625 119.496094 C 176.40625 119.496094 169.679688 101.734375 153.222656 94.792969 C 144.074219 90.9375 130.691406 93.769531 117.5625 100.644531 C 107.230469 106.050781 97.53125 114.09375 82.074219 112.554688 C 82.074219 112.554688 100.449219 111.410156 114.160156 98.964844 C 105.179688 94.957031 79.679688 86.261719 53.582031 102.136719 C 44.664062 116.597656 33.75 116.558594 33.75 116.558594 C 45.914062 113.347656 62.671875 91.441406 57.089844 58.226562 C 57.089844 58.226562 56.605469 52.699219 58.96875 48.742188 C 54.5625 51.339844 51.582031 55.160156 51.582031 55.160156 C 56.746094 43.820312 61.902344 44.539062 66.410156 44.820312 C 89.035156 46.238281 80.488281 47.066406 92.617188 33.640625 C 99.394531 26.144531 82.074219 14.792969 74.910156 12.117188 C 70.03125 10.304688 58.816406 19.835938 53.410156 23.628906 C 46.441406 28.527344 41.164062 42.652344 33.414062 55.414062 C 22.09375 74.058594 0.0859375 96.925781 13.355469 127.324219 C 15.261719 131.695312 22.410156 131.1875 29.414062 137.585938 C 37.664062 145.125 76.355469 157.324219 98.90625 148.089844 C 98.90625 148.089844 121.902344 150.257812 137.820312 135.667969 C 137.820312 135.667969 127.953125 149.878906 103.339844 151.585938 C 111.265625 167.054688 124.300781 176.304688 134.972656 190.886719 C 138.378906 195.539062 143.945312 234.011719 137.628906 236.5 C 136.738281 239.484375 135.871094 242.40625 135.152344 245.253906 C 151.757812 250.222656 169.34375 252.894531 187.542969 252.894531 C 189.023438 252.894531 190.496094 252.871094 191.96875 252.835938 C 194.980469 244.585938 199.253906 235.625 201.015625 231.921875 " fill-opacity="1" fill-rule="nonzero"/></g><path fill="#000000" d="M 341.671875 55.414062 C 333.921875 42.652344 328.644531 28.527344 321.675781 23.628906 C 316.269531 19.835938 305.054688 10.304688 300.175781 12.117188 C 293.011719 14.792969 275.691406 26.144531 282.46875 33.640625 C 294.601562 47.066406 286.054688 46.238281 308.675781 44.820312 C 313.1875 44.539062 318.339844 43.820312 323.507812 55.160156 C 323.507812 55.160156 320.523438 51.339844 316.117188 48.742188 C 318.480469 52.699219 318 58.226562 318 58.226562 C 312.417969 91.441406 329.171875 113.347656 341.335938 116.558594 C 341.335938 116.558594 330.421875 116.597656 321.507812 102.136719 C 295.40625 86.261719 269.90625 94.957031 260.925781 98.964844 C 274.640625 111.410156 293.011719 112.554688 293.011719 112.554688 C 277.554688 114.09375 267.855469 106.050781 257.527344 100.644531 C 245.253906 94.222656 232.988281 92.003906 223.726562 94.136719 C 244.742188 99.851562 230.980469 121.53125 235.808594 136.164062 C 237.378906 140.933594 242.070312 143.566406 250.480469 151.109375 C 256.804688 150.613281 263.136719 152.730469 268.457031 155.425781 C 273.03125 150.984375 276.183594 148.089844 276.183594 148.089844 C 298.734375 157.324219 337.421875 145.125 345.675781 137.585938 C 352.675781 131.1875 359.828125 131.695312 361.734375 127.324219 C 375 96.925781 352.992188 74.058594 341.671875 55.414062 " fill-opacity="1" fill-rule="nonzero"/><g fill="#000000" fill-opacity="1"><g transform="translate(49.195995, 325.856434)"><g><path d="M 18.71875 -4.515625 L 8.015625 -4.515625 L 6.234375 0 L -0.171875 0 L 10.390625 -24.484375 L 16.796875 -24.484375 L 27.109375 0 L 20.46875 0 Z M 16.890625 -9.234375 L 13.40625 -18.296875 L 9.828125 -9.234375 Z M 16.890625 -9.234375 "/></g></g></g><g fill="#000000" fill-opacity="1"><g transform="translate(81.065908, 325.856434)"><g><path d="M 13.921875 -24.703125 C 15.742188 -24.703125 17.535156 -24.328125 19.296875 -23.578125 C 21.054688 -22.828125 22.554688 -21.828125 23.796875 -20.578125 L 20.1875 -16.296875 C 19.394531 -17.273438 18.441406 -18.050781 17.328125 -18.625 C 16.222656 -19.195312 15.125 -19.484375 14.03125 -19.484375 C 12.09375 -19.484375 10.46875 -18.800781 9.15625 -17.4375 C 7.851562 -16.070312 7.203125 -14.390625 7.203125 -12.390625 C 7.203125 -10.335938 7.851562 -8.617188 9.15625 -7.234375 C 10.46875 -5.859375 12.09375 -5.171875 14.03125 -5.171875 C 15.050781 -5.171875 16.113281 -5.425781 17.21875 -5.9375 C 18.332031 -6.457031 19.320312 -7.160156 20.1875 -8.046875 L 23.828125 -4.203125 C 22.492188 -2.847656 20.921875 -1.757812 19.109375 -0.9375 C 17.304688 -0.125 15.507812 0.28125 13.71875 0.28125 C 10.03125 0.28125 6.960938 -0.914062 4.515625 -3.3125 C 2.066406 -5.71875 0.84375 -8.71875 0.84375 -12.3125 C 0.84375 -15.832031 2.085938 -18.773438 4.578125 -21.140625 C 7.078125 -23.515625 10.191406 -24.703125 13.921875 -24.703125 Z M 13.921875 -24.703125 "/></g></g></g><g fill="#000000" fill-opacity="1"><g transform="translate(110.207349, 325.856434)"><g><path d="M 18.71875 -4.515625 L 8.015625 -4.515625 L 6.234375 0 L -0.171875 0 L 10.390625 -24.484375 L 16.796875 -24.484375 L 27.109375 0 L 20.46875 0 Z M 16.890625 -9.234375 L 13.40625 -18.296875 L 9.828125 -9.234375 Z M 16.890625 -9.234375 "/></g></g></g><g fill="#000000" fill-opacity="1"><g transform="translate(142.077262, 325.856434)"><g><path d="M 2.453125 -24.484375 L 12.984375 -24.484375 C 16.828125 -24.484375 19.957031 -23.351562 22.375 -21.09375 C 24.789062 -18.832031 26 -15.882812 26 -12.25 C 26 -8.632812 24.769531 -5.6875 22.3125 -3.40625 C 19.863281 -1.132812 16.671875 0 12.734375 0 L 2.453125 0 Z M 8.671875 -19.515625 L 8.671875 -4.96875 L 13.125 -4.96875 C 15.03125 -4.96875 16.59375 -5.632812 17.8125 -6.96875 C 19.039062 -8.3125 19.65625 -10.054688 19.65625 -12.203125 C 19.65625 -14.347656 19.015625 -16.101562 17.734375 -17.46875 C 16.453125 -18.832031 14.820312 -19.515625 12.84375 -19.515625 Z M 8.671875 -19.515625 "/></g></g></g><g fill="#000000" fill-opacity="1"><g transform="translate(173.842233, 325.856434)"><g><path d="M 21.625 -19.59375 L 8.671875 -19.59375 L 8.671875 -14.734375 L 20.359375 -14.734375 L 20.359375 -9.828125 L 8.671875 -9.828125 L 8.671875 -4.890625 L 22 -4.890625 L 22 0 L 2.453125 0 L 2.453125 -24.484375 L 21.625 -24.484375 Z M 21.625 -19.59375 "/></g></g></g><g fill="#000000" fill-opacity="1"><g transform="translate(202.354013, 325.856434)"><g><path d="M 29.359375 0 L 23.859375 0 L 23.828125 -15.921875 L 17.953125 -2.453125 L 13.890625 -2.453125 L 8.015625 -15.921875 L 8.015625 0 L 2.453125 0 L 2.453125 -24.53125 L 9.265625 -24.53125 L 15.921875 -9.9375 L 22.5625 -24.53125 L 29.359375 -24.53125 Z M 29.359375 0 "/></g></g></g><g fill="#000000" fill-opacity="1"><g transform="translate(239.121187, 325.856434)"><g><path d="M 8.671875 0 L 2.453125 0 L 2.453125 -24.484375 L 8.671875 -24.484375 Z M 8.671875 0 "/></g></g></g><g fill="#000000" fill-opacity="1"><g transform="translate(255.179936, 325.856434)"><g><path d="M 18.71875 -4.515625 L 8.015625 -4.515625 L 6.234375 0 L -0.171875 0 L 10.390625 -24.484375 L 16.796875 -24.484375 L 27.109375 0 L 20.46875 0 Z M 16.890625 -9.234375 L 13.40625 -18.296875 L 9.828125 -9.234375 Z M 16.890625 -9.234375 "/></g></g></g><g fill="#000000" fill-opacity="1"><g transform="translate(287.049842, 325.856434)"><g/></g></g><g fill="#000000" fill-opacity="1"><g transform="translate(300.100254, 325.856434)"><g><path d="M 16.65625 -12.796875 L 25.4375 0 L 17.984375 0 L 12.703125 -7.796875 L 7.421875 0 L 0.171875 0 L 8.921875 -12.53125 L 0.734375 -24.484375 L 7.96875 -24.484375 L 12.703125 -17.359375 L 17.421875 -24.484375 L 24.734375 -24.484375 Z M 16.65625 -12.796875 "/></g></g></g><g fill="#000000" fill-opacity="1"><g transform="translate(42.057424, 361.35648)"><g><path d="M 12.625 -13.359375 L 4.71875 -13.359375 L 4.71875 -8.8125 L 11.875 -8.8125 L 11.875 -6.453125 L 4.71875 -6.453125 L 4.71875 0 L 2.0625 0 L 2.0625 -15.75 L 12.640625 -15.75 Z M 12.625 -13.359375 "/></g></g></g><g fill="#000000" fill-opacity="1"><g transform="translate(62.645025, 361.35648)"><g><path d="M 4.71875 0 L 2.0625 0 L 2.0625 -15.75 L 4.71875 -15.75 Z M 4.71875 0 "/></g></g></g><g fill="#000000" fill-opacity="1"><g transform="translate(77.090068, 361.35648)"><g><path d="M 12.828125 -13.359375 L 7.828125 -13.359375 L 7.828125 0 L 5.171875 0 L 5.171875 -13.359375 L 0.203125 -13.359375 L 0.203125 -15.75 L 12.828125 -15.75 Z M 12.828125 -13.359375 "/></g></g></g><g fill="#000000" fill-opacity="1"><g transform="translate(97.767649, 361.35648)"><g><path d="M 15.734375 0 L 13.125 0 L 4.71875 -11.296875 L 4.71875 0 L 2.0625 0 L 2.0625 -15.75 L 4.6875 -15.75 L 13.125 -4.4375 L 13.125 -15.75 L 15.734375 -15.75 Z M 15.734375 0 "/></g></g></g><g fill="#000000" fill-opacity="1"><g transform="translate(123.237786, 361.35648)"><g><path d="M 13.3125 -13.359375 L 4.71875 -13.359375 L 4.71875 -9.109375 L 12.421875 -9.109375 L 12.421875 -6.734375 L 4.71875 -6.734375 L 4.71875 -2.390625 L 13.59375 -2.390625 L 13.59375 0 L 2.0625 0 L 2.0625 -15.75 L 13.3125 -15.75 Z M 13.3125 -13.359375 "/></g></g></g><g fill="#000000" fill-opacity="1"><g transform="translate(145.647891, 361.35648)"><g><path d="M 7.25 -15.859375 C 9.289062 -15.859375 11.125 -15.320312 12.75 -14.25 L 11.65625 -11.90625 C 10.050781 -12.875 8.515625 -13.359375 7.046875 -13.359375 C 6.242188 -13.359375 5.613281 -13.21875 5.15625 -12.9375 C 4.707031 -12.65625 4.484375 -12.25 4.484375 -11.71875 C 4.484375 -11.195312 4.691406 -10.75 5.109375 -10.375 C 5.523438 -10.007812 6.046875 -9.738281 6.671875 -9.5625 C 7.304688 -9.394531 7.988281 -9.179688 8.71875 -8.921875 C 9.457031 -8.660156 10.140625 -8.382812 10.765625 -8.09375 C 11.398438 -7.800781 11.921875 -7.34375 12.328125 -6.71875 C 12.742188 -6.09375 12.953125 -5.335938 12.953125 -4.453125 C 12.953125 -3.078125 12.398438 -1.972656 11.296875 -1.140625 C 10.203125 -0.316406 8.773438 0.09375 7.015625 0.09375 C 5.816406 0.09375 4.65625 -0.128906 3.53125 -0.578125 C 2.40625 -1.035156 1.421875 -1.644531 0.578125 -2.40625 L 1.734375 -4.703125 C 2.523438 -3.960938 3.394531 -3.394531 4.34375 -3 C 5.300781 -2.601562 6.207031 -2.40625 7.0625 -2.40625 C 7.988281 -2.40625 8.710938 -2.570312 9.234375 -2.90625 C 9.753906 -3.25 10.015625 -3.71875 10.015625 -4.3125 C 10.015625 -4.851562 9.800781 -5.304688 9.375 -5.671875 C 8.957031 -6.046875 8.429688 -6.316406 7.796875 -6.484375 C 7.171875 -6.660156 6.488281 -6.875 5.75 -7.125 C 5.019531 -7.375 4.335938 -7.632812 3.703125 -7.90625 C 3.078125 -8.1875 2.550781 -8.632812 2.125 -9.25 C 1.707031 -9.863281 1.5 -10.601562 1.5 -11.46875 C 1.5 -12.8125 2.023438 -13.878906 3.078125 -14.671875 C 4.128906 -15.460938 5.519531 -15.859375 7.25 -15.859375 Z M 7.25 -15.859375 "/></g></g></g><g fill="#000000" fill-opacity="1"><g transform="translate(167.292987, 361.35648)"><g><path d="M 7.25 -15.859375 C 9.289062 -15.859375 11.125 -15.320312 12.75 -14.25 L 11.65625 -11.90625 C 10.050781 -12.875 8.515625 -13.359375 7.046875 -13.359375 C 6.242188 -13.359375 5.613281 -13.21875 5.15625 -12.9375 C 4.707031 -12.65625 4.484375 -12.25 4.484375 -11.71875 C 4.484375 -11.195312 4.691406 -10.75 5.109375 -10.375 C 5.523438 -10.007812 6.046875 -9.738281 6.671875 -9.5625 C 7.304688 -9.394531 7.988281 -9.179688 8.71875 -8.921875 C 9.457031 -8.660156 10.140625 -8.382812 10.765625 -8.09375 C 11.398438 -7.800781 11.921875 -7.34375 12.328125 -6.71875 C 12.742188 -6.09375 12.953125 -5.335938 12.953125 -4.453125 C 12.953125 -3.078125 12.398438 -1.972656 11.296875 -1.140625 C 10.203125 -0.316406 8.773438 0.09375 7.015625 0.09375 C 5.816406 0.09375 4.65625 -0.128906 3.53125 -0.578125 C 2.40625 -1.035156 1.421875 -1.644531 0.578125 -2.40625 L 1.734375 -4.703125 C 2.523438 -3.960938 3.394531 -3.394531 4.34375 -3 C 5.300781 -2.601562 6.207031 -2.40625 7.0625 -2.40625 C 7.988281 -2.40625 8.710938 -2.570312 9.234375 -2.90625 C 9.753906 -3.25 10.015625 -3.71875 10.015625 -4.3125 C 10.015625 -4.851562 9.800781 -5.304688 9.375 -5.671875 C 8.957031 -6.046875 8.429688 -6.316406 7.796875 -6.484375 C 7.171875 -6.660156 6.488281 -6.875 5.75 -7.125 C 5.019531 -7.375 4.335938 -7.632812 3.703125 -7.90625 C 3.078125 -8.1875 2.550781 -8.632812 2.125 -9.25 C 1.707031 -9.863281 1.5 -10.601562 1.5 -11.46875 C 1.5 -12.8125 2.023438 -13.878906 3.078125 -14.671875 C 4.128906 -15.460938 5.519531 -15.859375 7.25 -15.859375 Z M 7.25 -15.859375 "/></g></g></g><g fill="#000000" fill-opacity="1"><g transform="translate(188.938084, 361.35648)"><g/></g></g><g fill="#000000" fill-opacity="1"><g transform="translate(202.39313, 361.35648)"><g><path d="M 9.046875 -15.8125 C 10.148438 -15.8125 11.226562 -15.597656 12.28125 -15.171875 C 13.34375 -14.742188 14.257812 -14.148438 15.03125 -13.390625 L 13.484375 -11.453125 C 12.910156 -12.066406 12.234375 -12.550781 11.453125 -12.90625 C 10.671875 -13.269531 9.882812 -13.453125 9.09375 -13.453125 C 7.519531 -13.453125 6.1875 -12.914062 5.09375 -11.84375 C 4.007812 -10.769531 3.46875 -9.460938 3.46875 -7.921875 C 3.46875 -6.359375 4.007812 -5.039062 5.09375 -3.96875 C 6.1875 -2.894531 7.519531 -2.359375 9.09375 -2.359375 C 10.726562 -2.359375 12.191406 -2.984375 13.484375 -4.234375 L 15.046875 -2.46875 C 14.242188 -1.675781 13.300781 -1.046875 12.21875 -0.578125 C 11.132812 -0.117188 10.046875 0.109375 8.953125 0.109375 C 6.640625 0.109375 4.695312 -0.65625 3.125 -2.1875 C 1.550781 -3.726562 0.765625 -5.628906 0.765625 -7.890625 C 0.765625 -10.128906 1.5625 -12.007812 3.15625 -13.53125 C 4.757812 -15.050781 6.722656 -15.8125 9.046875 -15.8125 Z M 9.046875 -15.8125 "/></g></g></g><g fill="#000000" fill-opacity="1"><g transform="translate(225.725744, 361.35648)"><g><path d="M 13.3125 -13.359375 L 4.71875 -13.359375 L 4.71875 -9.109375 L 12.421875 -9.109375 L 12.421875 -6.734375 L 4.71875 -6.734375 L 4.71875 -2.390625 L 13.59375 -2.390625 L 13.59375 0 L 2.0625 0 L 2.0625 -15.75 L 13.3125 -15.75 Z M 13.3125 -13.359375 "/></g></g></g><g fill="#000000" fill-opacity="1"><g transform="translate(248.135849, 361.35648)"><g><path d="M 15.734375 0 L 13.125 0 L 4.71875 -11.296875 L 4.71875 0 L 2.0625 0 L 2.0625 -15.75 L 4.6875 -15.75 L 13.125 -4.4375 L 13.125 -15.75 L 15.734375 -15.75 Z M 15.734375 0 "/></g></g></g><g fill="#000000" fill-opacity="1"><g transform="translate(273.60599, 361.35648)"><g><path d="M 12.828125 -13.359375 L 7.828125 -13.359375 L 7.828125 0 L 5.171875 0 L 5.171875 -13.359375 L 0.203125 -13.359375 L 0.203125 -15.75 L 12.828125 -15.75 Z M 12.828125 -13.359375 "/></g></g></g><g fill="#000000" fill-opacity="1"><g transform="translate(294.283559, 361.35648)"><g><path d="M 13.3125 -13.359375 L 4.71875 -13.359375 L 4.71875 -9.109375 L 12.421875 -9.109375 L 12.421875 -6.734375 L 4.71875 -6.734375 L 4.71875 -2.390625 L 13.59375 -2.390625 L 13.59375 0 L 2.0625 0 L 2.0625 -15.75 L 13.3125 -15.75 Z M 13.3125 -13.359375 "/></g></g></g><g fill="#000000" fill-opacity="1"><g transform="translate(316.693665, 361.35648)"><g><path d="M 12.0625 0 L 9.1875 -4.765625 C 9.03125 -4.753906 8.785156 -4.75 8.453125 -4.75 L 4.71875 -4.75 L 4.71875 0 L 2.0625 0 L 2.0625 -15.75 L 8.453125 -15.75 C 10.460938 -15.75 12.023438 -15.28125 13.140625 -14.34375 C 14.253906 -13.40625 14.8125 -12.082031 14.8125 -10.375 C 14.8125 -9.113281 14.53125 -8.046875 13.96875 -7.171875 C 13.40625 -6.304688 12.597656 -5.671875 11.546875 -5.265625 L 15.078125 0 Z M 4.71875 -7.125 L 8.453125 -7.125 C 11.003906 -7.125 12.28125 -8.1875 12.28125 -10.3125 C 12.28125 -12.34375 11.003906 -13.359375 8.453125 -13.359375 L 4.71875 -13.359375 Z M 4.71875 -7.125 "/></g></g></g></svg>